<?xml version="1.0" encoding="iso-8859-1"?>
<!-- Generator: Adobe Illustrator 19.0.0, SVG Export Plug-In . SVG Version: 6.00 Build 0)  -->
<svg version="1.1" id="Capa_1" xmlns="http://www.w3.org/2000/svg" xmlns:xlink="http://www.w3.org/1999/xlink" x="0px" y="0px"
	 viewBox="0 0 512 512" style="enable-background:new 0 0 512 512;" xml:space="preserve">
<path style="fill:#EDEBED;" d="M408.306,215.92c-0.137,0-0.268,0.02-0.403,0.021c-4.133-62.662-56.131-112.246-119.839-112.246
	c-36.587,0-69.296,16.397-91.35,42.179c-6.746-1.372-13.725-2.098-20.876-2.098c-47.893,0-88.137,32.351-100.333,76.362
	C36.138,232.188,7.5,268.797,7.5,312.113c0,53.126,43.067,96.194,96.194,96.194h304.613c53.126,0,96.194-43.068,96.194-96.194
	C504.5,258.986,461.433,215.92,408.306,215.92z"/>
<path style="fill:#DBD9DC;" d="M400.29,376.242H203.103c-53.077,0-98.579-41.604-99.398-94.675
	c-0.616-39.917,23.111-74.306,57.282-89.431c7.561-3.347,13.705-9.125,17.049-16.688c4.769-10.785,11.083-20.732,18.645-29.581
	c-6.735-1.367-13.703-2.093-20.842-2.093c-47.893,0-88.137,32.351-100.333,76.362c-40.087,12.271-69.048,50.006-67.977,94.356
	c1.273,52.72,46.57,93.815,99.306,93.815h293.456c8.854,0,16.032-7.178,16.032-16.032l0,0
	C416.323,383.421,409.145,376.242,400.29,376.242z"/>
<path d="M414.881,208.627c0,0-0.349-1.845-0.554-3.207c-4.134-28.464-17.71-54.643-38.86-74.561
	c-23.736-22.354-54.776-34.665-87.402-34.665c-35.87,0-69.939,15.085-94.159,41.538c-2.971-0.483-5.967-0.847-8.985-1.088
	c-0.009-0.001-0.018-0.002-0.028-0.002c-2.372-0.224-7.657-0.366-9.054-0.366c-48.613,0-91.79,31.852-106.4,77.951
	c-2.447,0.856-4.868,1.795-7.253,2.837c-0.264,0.115-0.515,0.247-0.758,0.388c-15.961,7.167-30.123,18.393-40.683,32.443
	C7.173,267.951,0,289.466,0,312.113c0,57.177,46.517,103.693,103.693,103.693h304.613C465.483,415.807,512,369.29,512,312.113
	C512,257.143,469.008,212.027,414.881,208.627z M408.307,400.807H103.693C54.788,400.807,15,361.02,15,312.113
	c0-19.371,6.133-37.77,17.735-53.207c11.227-14.938,27.195-26.159,44.965-31.598c0.055-0.017,0.106-0.042,0.161-0.061
	c5.983-1.819,12.15-3.007,18.437-3.525c4.128-0.341,7.199-3.963,6.858-8.091s-3.967-7.201-8.091-6.858
	c-2.67,0.22-5.32,0.552-7.951,0.974c15.085-34.985,49.895-58.473,88.724-58.473c6.508,0,13.028,0.655,19.381,1.947
	c0.035,0.007,0.069,0.007,0.104,0.014c6.068,1.241,12.004,3.064,17.766,5.471c0.945,0.396,1.925,0.582,2.889,0.582
	c2.935,0,5.721-1.733,6.923-4.61c1.597-3.822-0.207-8.215-4.029-9.812c-2.638-1.102-5.308-2.097-8.006-2.988
	c20.837-19.629,48.36-30.685,77.197-30.685c59.11,0,108.462,46.227,112.355,105.239c0.029,0.443,0.304,12.535,0.14,15.026
	c-0.272,4.133,2.858,7.704,6.992,7.976c0.167,0.012,0.334,0.017,0.5,0.017c3.917,0,7.216-3.042,7.477-7.008
	c0.186-2.817,0.279-5.68,0.279-8.508c0-0.066-0.003-0.132-0.003-0.198C461.215,227.555,497,265.731,497,312.113
	C497,361.02,457.212,400.807,408.307,400.807z"/>
<path d="M138.262,214.324c-2.838-1.003-5.749-1.89-8.651-2.637c-4.008-1.031-8.1,1.384-9.132,5.396
	c-1.032,4.012,1.384,8.1,5.396,9.132c2.478,0.638,4.965,1.396,7.391,2.252c0.827,0.292,1.669,0.431,2.499,0.431
	c3.09,0,5.984-1.925,7.072-5.004C144.215,219.988,142.167,215.704,138.262,214.324z"/>
<path d="M403.964,256.943c-3.905-1.379-8.19,0.667-9.57,4.572c-1.22,3.451-2.628,6.886-4.185,10.208
	c-1.757,3.751-0.142,8.217,3.609,9.974c1.029,0.482,2.111,0.711,3.177,0.711c2.819,0,5.521-1.598,6.796-4.319
	c1.765-3.767,3.361-7.661,4.744-11.575C409.917,262.608,407.87,258.323,403.964,256.943z"/>
<g>
</g>
<g>
</g>
<g>
</g>
<g>
</g>
<g>
</g>
<g>
</g>
<g>
</g>
<g>
</g>
<g>
</g>
<g>
</g>
<g>
</g>
<g>
</g>
<g>
</g>
<g>
</g>
<g>
</g>
</svg>
