<?xml version="1.0" encoding="UTF-8"?>
<svg width="510px" height="777px" viewBox="0 0 510 777" version="1.1" xmlns="http://www.w3.org/2000/svg" xmlns:xlink="http://www.w3.org/1999/xlink">
    <title>编组 3</title>
    <g id="页面-1" stroke="none" stroke-width="1" fill="none" fill-rule="evenodd">
        <g id="Base" transform="translate(-493.000000, 0.000000)">
            <g id="编组-3" transform="translate(493.000000, 0.000000)">
                <rect id="矩形" fill="#D8ECFE" opacity="0.559922162" x="0" y="0" width="510" height="777"></rect>
                <g id="cloud备份-2" transform="translate(386.000000, 309.000000)" fill-rule="nonzero">
                    <path d="M52.0398881,16.1402921 C52.0228546,16.1402921 52.0065671,16.1427725 51.9897823,16.1428965 C51.4759184,8.37159695 45.0109056,2.22222222 37.0899658,2.22222222 C32.5410327,2.22222222 28.474259,4.25576726 25.7322421,7.45323377 C24.8934988,7.28307924 24.0257861,7.1930412 23.1366883,7.1930412 C17.1820583,7.1930412 12.1784433,11.2051907 10.6620908,16.6634057 C5.76751493,18.1578387 2.20689655,22.6980625 2.20689655,28.0700841 C2.20689655,34.6587353 7.56150064,40 14.1668841,40 L52.0400124,40 C58.6452716,40 64,34.6587353 64,28.0700841 C64,21.4813088 58.6452716,16.1402921 52.0398881,16.1402921 Z" id="路径" fill="#E3F1FE"></path>
                    <path d="M48.7679953,35.9595463 L24.2856492,35.9595463 C17.6957143,35.9595463 12.0462764,30.7171002 11.944591,24.0297178 C11.8681097,18.9998475 14.8140069,14.6665507 19.0566103,12.7606764 C19.9953691,12.3389268 20.7581959,11.6108513 21.1733803,10.6578511 C21.7654898,9.29885244 22.5494235,8.04544865 23.4883064,6.93040188 C22.6521022,6.75814864 21.7869692,6.66666667 20.9006051,6.66666667 C14.9543054,6.66666667 9.95769035,10.7431587 8.44345922,16.2889066 C3.46633696,17.8351535 -0.129403246,22.5900738 0.00356998553,28.1785385 C0.161623136,34.8216921 5.78560864,40 12.3332056,40 L48.7681194,40 C49.8674145,40 50.7586207,39.095513 50.7586207,37.9798362 L50.7586207,37.9798362 C50.7586207,36.8641594 49.8674145,35.9595463 48.7679953,35.9595463 Z" id="路径" fill="#C0DDF8" opacity="0.272215361"></path>
                    <path d="M51.860125,14.0711863 C51.860125,14.0711863 51.8165,13.8402813 51.790875,13.6698247 C51.274125,10.1075054 49.577125,6.83115778 46.933375,4.33838529 C43.966375,1.54074315 40.086375,0 36.008125,0 C31.524375,0 27.26575,1.8879141 24.23825,5.19855325 C23.866875,5.13810495 23.492375,5.09254972 23.115125,5.06238815 C23.114,5.06226299 23.112875,5.06213784 23.111625,5.06213784 C22.815125,5.03410385 22.1545,5.0163323 21.979875,5.0163323 C15.90325,5.0163323 10.506125,9.00266573 8.679875,14.7720361 C8.374,14.879166 8.071375,14.9966835 7.77325,15.1270916 C7.74025,15.141484 7.708875,15.1580041 7.6785,15.1756505 C5.683375,16.072613 3.913125,17.4775665 2.593125,19.2359486 C0.896625,21.4956885 0,24.1883283 0,27.02264 C0,34.1784414 5.814625,40 12.961625,40 L51.03825,40 C58.185375,40 64,34.1784414 64,27.02264 C64,20.1430484 58.626,14.4967023 51.860125,14.0711863 Z M51.038375,38.122849 L12.961625,38.122849 C6.8485,38.122849 1.875,33.1434364 1.875,27.02264 C1.875,24.5983255 2.641625,22.2956585 4.091875,20.363691 C5.49525,18.4941742 7.49125,17.0898464 9.7125,16.4091461 C9.719375,16.4070185 9.72575,16.4038897 9.732625,16.4015118 C10.4805,16.1738608 11.251375,16.0251805 12.03725,15.9603519 C12.55325,15.9176752 12.937125,15.4643756 12.8945,14.9477491 C12.851875,14.4311227 12.398625,14.0465314 11.883125,14.0894585 C11.549375,14.1169919 11.218125,14.1585422 10.88925,14.2113563 C12.774875,9.83292242 17.126125,6.8933582 21.97975,6.8933582 C22.79325,6.8933582 23.60825,6.97533259 24.402375,7.13702865 C24.40675,7.13790471 24.411,7.13790471 24.415375,7.13878077 C25.173875,7.29409409 25.915875,7.52224572 26.636125,7.82348598 C26.75425,7.87304607 26.87675,7.89632429 26.99725,7.89632429 C27.364125,7.89632429 27.712375,7.67943632 27.862625,7.31937474 C28.06225,6.84104477 27.83675,6.29125314 27.359,6.09138581 C27.02925,5.95346858 26.6955,5.82894259 26.35825,5.71743239 C28.962875,3.26082875 32.40325,1.87715105 36.007875,1.87715105 C43.396625,1.87715105 49.565625,7.66254083 50.05225,15.0479957 C50.055875,15.1034379 50.09025,16.6167728 50.06975,16.9285258 C50.03575,17.445778 50.427,17.8926949 50.94375,17.9267362 C50.964625,17.928238 50.9855,17.9288637 51.00625,17.9288637 C51.495875,17.9288637 51.90825,17.5481521 51.940875,17.0518003 C51.964125,16.6992478 51.97575,16.3409384 51.97575,15.9870092 C51.97575,15.9787492 51.975375,15.9704892 51.975375,15.9622292 C57.651875,16.4400586 62.125,21.2178516 62.125,27.02264 C62.125,33.1434364 57.1515,38.122849 51.038375,38.122849 Z" id="形状" fill="#FFFFFF"></path>
                    <path d="M17.1755235,13.6994736 C16.9035156,13.5717358 16.6245111,13.4587713 16.3463691,13.3636366 C15.9622227,13.2323329 15.5700253,13.5398969 15.4711134,14.050848 C15.3722014,14.561799 15.6037627,15.0824291 15.9882925,15.2138602 C16.2257962,15.2951132 16.4641625,15.3916488 16.6966823,15.5006652 C16.7759461,15.5378531 16.8566475,15.5555556 16.9361988,15.5555556 C17.2323595,15.5555556 17.5097347,15.3103958 17.614014,14.9182676 C17.7460883,14.4208163 17.5497979,13.8752245 17.1755235,13.6994736 Z" id="路径" fill="#FFFFFF"></path>
                    <path d="M50.1915217,20.0738306 C49.7488452,19.8371498 49.2630913,20.1883092 49.1066525,20.858533 C48.9683515,21.4508357 48.8087386,22.0403923 48.6322348,22.6105544 C48.4330587,23.2543468 48.6161374,24.0208562 49.0413563,24.322414 C49.1580052,24.4051407 49.2806624,24.4444444 49.4015057,24.4444444 C49.7210716,24.4444444 50.0273743,24.1701762 50.1719102,23.703165 C50.3719932,23.0566265 50.5529181,22.3882907 50.709697,21.7165223 C50.8663625,21.046127 50.6343116,20.310683 50.1915217,20.0738306 Z" id="路径" fill="#FFFFFF"></path>
                </g>
                <g id="cloud备份-4" transform="translate(392.000000, 343.000000) scale(-1, 1) translate(-392.000000, -343.000000) translate(360.000000, 323.000000)" fill-rule="nonzero">
                    <path d="M52.0398881,16.1402921 C52.0228546,16.1402921 52.0065671,16.1427725 51.9897823,16.1428965 C51.4759184,8.37159695 45.0109056,2.22222222 37.0899658,2.22222222 C32.5410327,2.22222222 28.474259,4.25576726 25.7322421,7.45323377 C24.8934988,7.28307924 24.0257861,7.1930412 23.1366883,7.1930412 C17.1820583,7.1930412 12.1784433,11.2051907 10.6620908,16.6634057 C5.76751493,18.1578387 2.20689655,22.6980625 2.20689655,28.0700841 C2.20689655,34.6587353 7.56150064,40 14.1668841,40 L52.0400124,40 C58.6452716,40 64,34.6587353 64,28.0700841 C64,21.4813088 58.6452716,16.1402921 52.0398881,16.1402921 Z" id="路径" fill="#E3F1FE"></path>
                    <path d="M48.7679953,35.9595463 L24.2856492,35.9595463 C17.6957143,35.9595463 12.0462764,30.7171002 11.944591,24.0297178 C11.8681097,18.9998475 14.8140069,14.6665507 19.0566103,12.7606764 C19.9953691,12.3389268 20.7581959,11.6108513 21.1733803,10.6578511 C21.7654898,9.29885244 22.5494235,8.04544865 23.4883064,6.93040188 C22.6521022,6.75814864 21.7869692,6.66666667 20.9006051,6.66666667 C14.9543054,6.66666667 9.95769035,10.7431587 8.44345922,16.2889066 C3.46633696,17.8351535 -0.129403246,22.5900738 0.00356998553,28.1785385 C0.161623136,34.8216921 5.78560864,40 12.3332056,40 L48.7681194,40 C49.8674145,40 50.7586207,39.095513 50.7586207,37.9798362 L50.7586207,37.9798362 C50.7586207,36.8641594 49.8674145,35.9595463 48.7679953,35.9595463 Z" id="路径" fill="#C0DDF8" opacity="0.272215361"></path>
                    <path d="M51.860125,14.0711863 C51.860125,14.0711863 51.8165,13.8402813 51.790875,13.6698247 C51.274125,10.1075054 49.577125,6.83115778 46.933375,4.33838529 C43.966375,1.54074315 40.086375,0 36.008125,0 C31.524375,0 27.26575,1.8879141 24.23825,5.19855325 C23.866875,5.13810495 23.492375,5.09254972 23.115125,5.06238815 C23.114,5.06226299 23.112875,5.06213784 23.111625,5.06213784 C22.815125,5.03410385 22.1545,5.0163323 21.979875,5.0163323 C15.90325,5.0163323 10.506125,9.00266573 8.679875,14.7720361 C8.374,14.879166 8.071375,14.9966835 7.77325,15.1270916 C7.74025,15.141484 7.708875,15.1580041 7.6785,15.1756505 C5.683375,16.072613 3.913125,17.4775665 2.593125,19.2359486 C0.896625,21.4956885 0,24.1883283 0,27.02264 C0,34.1784414 5.814625,40 12.961625,40 L51.03825,40 C58.185375,40 64,34.1784414 64,27.02264 C64,20.1430484 58.626,14.4967023 51.860125,14.0711863 Z M51.038375,38.122849 L12.961625,38.122849 C6.8485,38.122849 1.875,33.1434364 1.875,27.02264 C1.875,24.5983255 2.641625,22.2956585 4.091875,20.363691 C5.49525,18.4941742 7.49125,17.0898464 9.7125,16.4091461 C9.719375,16.4070185 9.72575,16.4038897 9.732625,16.4015118 C10.4805,16.1738608 11.251375,16.0251805 12.03725,15.9603519 C12.55325,15.9176752 12.937125,15.4643756 12.8945,14.9477491 C12.851875,14.4311227 12.398625,14.0465314 11.883125,14.0894585 C11.549375,14.1169919 11.218125,14.1585422 10.88925,14.2113563 C12.774875,9.83292242 17.126125,6.8933582 21.97975,6.8933582 C22.79325,6.8933582 23.60825,6.97533259 24.402375,7.13702865 C24.40675,7.13790471 24.411,7.13790471 24.415375,7.13878077 C25.173875,7.29409409 25.915875,7.52224572 26.636125,7.82348598 C26.75425,7.87304607 26.87675,7.89632429 26.99725,7.89632429 C27.364125,7.89632429 27.712375,7.67943632 27.862625,7.31937474 C28.06225,6.84104477 27.83675,6.29125314 27.359,6.09138581 C27.02925,5.95346858 26.6955,5.82894259 26.35825,5.71743239 C28.962875,3.26082875 32.40325,1.87715105 36.007875,1.87715105 C43.396625,1.87715105 49.565625,7.66254083 50.05225,15.0479957 C50.055875,15.1034379 50.09025,16.6167728 50.06975,16.9285258 C50.03575,17.445778 50.427,17.8926949 50.94375,17.9267362 C50.964625,17.928238 50.9855,17.9288637 51.00625,17.9288637 C51.495875,17.9288637 51.90825,17.5481521 51.940875,17.0518003 C51.964125,16.6992478 51.97575,16.3409384 51.97575,15.9870092 C51.97575,15.9787492 51.975375,15.9704892 51.975375,15.9622292 C57.651875,16.4400586 62.125,21.2178516 62.125,27.02264 C62.125,33.1434364 57.1515,38.122849 51.038375,38.122849 Z" id="形状" fill="#FFFFFF"></path>
                    <path d="M17.1755235,13.6994736 C16.9035156,13.5717358 16.6245111,13.4587713 16.3463691,13.3636366 C15.9622227,13.2323329 15.5700253,13.5398969 15.4711134,14.050848 C15.3722014,14.561799 15.6037627,15.0824291 15.9882925,15.2138602 C16.2257962,15.2951132 16.4641625,15.3916488 16.6966823,15.5006652 C16.7759461,15.5378531 16.8566475,15.5555556 16.9361988,15.5555556 C17.2323595,15.5555556 17.5097347,15.3103958 17.614014,14.9182676 C17.7460883,14.4208163 17.5497979,13.8752245 17.1755235,13.6994736 Z" id="路径" fill="#FFFFFF"></path>
                    <path d="M50.1915217,20.0738306 C49.7488452,19.8371498 49.2630913,20.1883092 49.1066525,20.858533 C48.9683515,21.4508357 48.8087386,22.0403923 48.6322348,22.6105544 C48.4330587,23.2543468 48.6161374,24.0208562 49.0413563,24.322414 C49.1580052,24.4051407 49.2806624,24.4444444 49.4015057,24.4444444 C49.7210716,24.4444444 50.0273743,24.1701762 50.1719102,23.703165 C50.3719932,23.0566265 50.5529181,22.3882907 50.709697,21.7165223 C50.8663625,21.046127 50.6343116,20.310683 50.1915217,20.0738306 Z" id="路径" fill="#FFFFFF"></path>
                </g>
                <g id="cloud备份-5" transform="translate(38.000000, 543.000000)" fill-rule="nonzero">
                    <path d="M52.0398881,16.1402921 C52.0228546,16.1402921 52.0065671,16.1427725 51.9897823,16.1428965 C51.4759184,8.37159695 45.0109056,2.22222222 37.0899658,2.22222222 C32.5410327,2.22222222 28.474259,4.25576726 25.7322421,7.45323377 C24.8934988,7.28307924 24.0257861,7.1930412 23.1366883,7.1930412 C17.1820583,7.1930412 12.1784433,11.2051907 10.6620908,16.6634057 C5.76751493,18.1578387 2.20689655,22.6980625 2.20689655,28.0700841 C2.20689655,34.6587353 7.56150064,40 14.1668841,40 L52.0400124,40 C58.6452716,40 64,34.6587353 64,28.0700841 C64,21.4813088 58.6452716,16.1402921 52.0398881,16.1402921 Z" id="路径" fill="#E3F1FE"></path>
                    <path d="M48.7679953,35.9595463 L24.2856492,35.9595463 C17.6957143,35.9595463 12.0462764,30.7171002 11.944591,24.0297178 C11.8681097,18.9998475 14.8140069,14.6665507 19.0566103,12.7606764 C19.9953691,12.3389268 20.7581959,11.6108513 21.1733803,10.6578511 C21.7654898,9.29885244 22.5494235,8.04544865 23.4883064,6.93040188 C22.6521022,6.75814864 21.7869692,6.66666667 20.9006051,6.66666667 C14.9543054,6.66666667 9.95769035,10.7431587 8.44345922,16.2889066 C3.46633696,17.8351535 -0.129403246,22.5900738 0.00356998553,28.1785385 C0.161623136,34.8216921 5.78560864,40 12.3332056,40 L48.7681194,40 C49.8674145,40 50.7586207,39.095513 50.7586207,37.9798362 L50.7586207,37.9798362 C50.7586207,36.8641594 49.8674145,35.9595463 48.7679953,35.9595463 Z" id="路径" fill="#C0DDF8" opacity="0.272215361"></path>
                    <path d="M51.860125,14.0711863 C51.860125,14.0711863 51.8165,13.8402813 51.790875,13.6698247 C51.274125,10.1075054 49.577125,6.83115778 46.933375,4.33838529 C43.966375,1.54074315 40.086375,0 36.008125,0 C31.524375,0 27.26575,1.8879141 24.23825,5.19855325 C23.866875,5.13810495 23.492375,5.09254972 23.115125,5.06238815 C23.114,5.06226299 23.112875,5.06213784 23.111625,5.06213784 C22.815125,5.03410385 22.1545,5.0163323 21.979875,5.0163323 C15.90325,5.0163323 10.506125,9.00266573 8.679875,14.7720361 C8.374,14.879166 8.071375,14.9966835 7.77325,15.1270916 C7.74025,15.141484 7.708875,15.1580041 7.6785,15.1756505 C5.683375,16.072613 3.913125,17.4775665 2.593125,19.2359486 C0.896625,21.4956885 0,24.1883283 0,27.02264 C0,34.1784414 5.814625,40 12.961625,40 L51.03825,40 C58.185375,40 64,34.1784414 64,27.02264 C64,20.1430484 58.626,14.4967023 51.860125,14.0711863 Z M51.038375,38.122849 L12.961625,38.122849 C6.8485,38.122849 1.875,33.1434364 1.875,27.02264 C1.875,24.5983255 2.641625,22.2956585 4.091875,20.363691 C5.49525,18.4941742 7.49125,17.0898464 9.7125,16.4091461 C9.719375,16.4070185 9.72575,16.4038897 9.732625,16.4015118 C10.4805,16.1738608 11.251375,16.0251805 12.03725,15.9603519 C12.55325,15.9176752 12.937125,15.4643756 12.8945,14.9477491 C12.851875,14.4311227 12.398625,14.0465314 11.883125,14.0894585 C11.549375,14.1169919 11.218125,14.1585422 10.88925,14.2113563 C12.774875,9.83292242 17.126125,6.8933582 21.97975,6.8933582 C22.79325,6.8933582 23.60825,6.97533259 24.402375,7.13702865 C24.40675,7.13790471 24.411,7.13790471 24.415375,7.13878077 C25.173875,7.29409409 25.915875,7.52224572 26.636125,7.82348598 C26.75425,7.87304607 26.87675,7.89632429 26.99725,7.89632429 C27.364125,7.89632429 27.712375,7.67943632 27.862625,7.31937474 C28.06225,6.84104477 27.83675,6.29125314 27.359,6.09138581 C27.02925,5.95346858 26.6955,5.82894259 26.35825,5.71743239 C28.962875,3.26082875 32.40325,1.87715105 36.007875,1.87715105 C43.396625,1.87715105 49.565625,7.66254083 50.05225,15.0479957 C50.055875,15.1034379 50.09025,16.6167728 50.06975,16.9285258 C50.03575,17.445778 50.427,17.8926949 50.94375,17.9267362 C50.964625,17.928238 50.9855,17.9288637 51.00625,17.9288637 C51.495875,17.9288637 51.90825,17.5481521 51.940875,17.0518003 C51.964125,16.6992478 51.97575,16.3409384 51.97575,15.9870092 C51.97575,15.9787492 51.975375,15.9704892 51.975375,15.9622292 C57.651875,16.4400586 62.125,21.2178516 62.125,27.02264 C62.125,33.1434364 57.1515,38.122849 51.038375,38.122849 Z" id="形状" fill="#FFFFFF"></path>
                    <path d="M17.1755235,13.6994736 C16.9035156,13.5717358 16.6245111,13.4587713 16.3463691,13.3636366 C15.9622227,13.2323329 15.5700253,13.5398969 15.4711134,14.050848 C15.3722014,14.561799 15.6037627,15.0824291 15.9882925,15.2138602 C16.2257962,15.2951132 16.4641625,15.3916488 16.6966823,15.5006652 C16.7759461,15.5378531 16.8566475,15.5555556 16.9361988,15.5555556 C17.2323595,15.5555556 17.5097347,15.3103958 17.614014,14.9182676 C17.7460883,14.4208163 17.5497979,13.8752245 17.1755235,13.6994736 Z" id="路径" fill="#FFFFFF"></path>
                    <path d="M50.1915217,20.0738306 C49.7488452,19.8371498 49.2630913,20.1883092 49.1066525,20.858533 C48.9683515,21.4508357 48.8087386,22.0403923 48.6322348,22.6105544 C48.4330587,23.2543468 48.6161374,24.0208562 49.0413563,24.322414 C49.1580052,24.4051407 49.2806624,24.4444444 49.4015057,24.4444444 C49.7210716,24.4444444 50.0273743,24.1701762 50.1719102,23.703165 C50.3719932,23.0566265 50.5529181,22.3882907 50.709697,21.7165223 C50.8663625,21.046127 50.6343116,20.310683 50.1915217,20.0738306 Z" id="路径" fill="#FFFFFF"></path>
                </g>
                <g id="cloud备份-8" transform="translate(424.000000, 33.000000)" fill-rule="nonzero">
                    <path d="M31.0777083,9.49470605 C31.0678497,9.49470605 31.0584228,9.49600607 31.048708,9.49607107 C30.7512931,5.42299581 27.0094632,2.2 22.4249697,2.2 C19.7921313,2.2 17.4383579,3.26581684 15.8513292,4.94166546 C15.3658801,4.85248447 14.863664,4.80529395 14.3490707,4.80529395 C10.9026409,4.80529395 8.00664101,6.90813231 7.12900424,9.7688791 C4.29611421,10.5521378 2.23529412,12.9317492 2.23529412,15.7473205 C2.23529412,19.2005489 5.33443997,22 9.15751383,22 L31.0777803,22 C34.9007822,22 38,19.2005489 38,15.7473205 C38,12.2940272 34.9007822,9.49470605 31.0777083,9.49470605 Z" id="路径" fill="#E3F1FE"></path>
                    <path d="M27.9192096,19.8666405 L13.9033012,19.8666405 C10.1306267,19.8666405 6.89637773,17.0986289 6.83816381,13.567691 C6.79437897,10.9119195 8.48087685,8.62393879 10.9097266,7.61763712 C11.447157,7.39495337 11.8838681,7.0105295 12.1215571,6.5073454 C12.4605342,5.78979409 12.9093287,5.12799689 13.4468302,4.53925219 C12.9681113,4.44830248 12.4728309,4.4 11.965396,4.4 C8.56119643,4.4 5.70068222,6.55238779 4.83379943,9.48054269 C1.98444467,10.2969611 -0.0740821174,12.807559 0.00204378248,15.7582683 C0.0925276952,19.2658534 3.31220546,22 7.06064193,22 L27.9192806,22 C28.5486165,22 29.0588235,21.5224308 29.0588235,20.9333535 L29.0588235,20.9333535 C29.0588235,20.3442761 28.5486165,19.8666405 27.9192096,19.8666405 Z" id="路径" fill="#C0DDF8" opacity="0.272215361"></path>
                    <path d="M30.7919492,7.73915247 C30.7919492,7.73915247 30.7660469,7.61215474 30.750832,7.51840356 C30.4440117,5.55912794 29.436418,3.75713678 27.8666914,2.38611191 C26.1050352,0.847408733 23.8012852,0 21.3798242,0 C18.7175977,0 16.1890391,1.03835275 14.3914609,2.85920429 C14.170957,2.82595772 13.9485977,2.80090234 13.7246055,2.78431348 C13.7239375,2.78424465 13.7232695,2.78417581 13.7225273,2.78417581 C13.5464805,2.76875712 13.1542344,2.75898277 13.0505508,2.75898277 C9.44255469,2.75898277 6.23801172,4.95146615 5.15367578,8.12461985 C4.9720625,8.18354129 4.79237891,8.24817591 4.61536719,8.31990038 C4.59577344,8.32781623 4.57714453,8.33690224 4.55910937,8.34660776 C3.37450391,8.83993717 2.32341797,9.6126616 1.53966797,10.5797717 C0.532371094,11.8226287 0,13.3035806 0,14.862452 C0,18.7981427 3.45243359,22 7.69596484,22 L30.3039609,22 C34.5475664,22 38,18.7981427 38,14.862452 C38,11.0786766 34.8091875,7.97318624 30.7919492,7.73915247 Z M30.3040352,20.9675669 L7.69596484,20.9675669 C4.06629687,20.9675669 1.11328125,18.22889 1.11328125,14.862452 C1.11328125,13.529079 1.56846484,12.2626122 2.42955078,11.20003 C3.26280469,10.1717958 4.44792969,9.39941554 5.76679688,9.02503035 C5.77087891,9.02386018 5.77466406,9.02213934 5.77874609,9.02083151 C6.22279688,8.89562344 6.68050391,8.81384929 7.14711719,8.77819356 C7.45349219,8.75472135 7.68141797,8.50540656 7.65610938,8.22126203 C7.63080078,7.9371175 7.36168359,7.72559228 7.05560547,7.74920216 C6.85744141,7.76434552 6.66076172,7.78719823 6.46549219,7.81624595 C7.58508203,5.40810733 10.1686367,3.79134701 13.0504766,3.79134701 C13.5334922,3.79134701 14.0173984,3.83643292 14.4889102,3.92536576 C14.4915078,3.92584759 14.4940313,3.92584759 14.4966289,3.92632942 C14.9469883,4.01175175 15.3875508,4.13723515 15.8151992,4.30291729 C15.8853359,4.33017534 15.9580703,4.34297836 16.0296172,4.34297836 C16.2474492,4.34297836 16.4542227,4.22368997 16.5434336,4.02565611 C16.6619609,3.76257462 16.5280703,3.46018923 16.2444063,3.35026219 C16.0486172,3.27440772 15.8504531,3.20591843 15.6502109,3.14458781 C17.196707,1.79345582 19.2394297,1.03243308 21.3796758,1.03243308 C25.7667461,1.03243308 29.4295898,4.21439746 29.7185234,8.27639763 C29.7206758,8.30689086 29.7410859,9.13922506 29.7289141,9.31068921 C29.7087266,9.5951779 29.9410313,9.84098219 30.2478516,9.85970489 C30.2602461,9.86053089 30.2726406,9.86087506 30.2849609,9.86087506 C30.5756758,9.86087506 30.8205234,9.65148367 30.8398945,9.37849017 C30.8536992,9.18458631 30.8606016,8.98751611 30.8606016,8.79285509 C30.8606016,8.78831208 30.8603789,8.78376907 30.8603789,8.77922606 C34.2308008,9.04203221 36.8867188,11.6698184 36.8867188,14.862452 C36.8867188,18.22889 33.9337031,20.9675669 30.3040352,20.9675669 Z" id="形状" fill="#FFFFFF"></path>
                    <path d="M10.6906497,6.96247887 C10.4151418,6.83601848 10.1325471,6.72418362 9.8508261,6.63000026 C9.46173662,6.50000957 9.06449257,6.80449794 8.96430786,7.3103395 C8.86412314,7.81618105 9.0986641,8.33160484 9.4881419,8.46172161 C9.72870171,8.54216202 9.97013523,8.63773228 10.205647,8.7456586 C10.2859307,8.78247458 10.3676705,8.8 10.4482454,8.8 C10.7482171,8.8 11.0291615,8.55729188 11.1347826,8.16908496 C11.2685563,7.67660812 11.0697402,7.13647222 10.6906497,6.96247887 Z" id="路径" fill="#FFFFFF"></path>
                    <path d="M30.7197215,11.0365461 C30.2713487,10.9193891 29.7793443,11.0932131 29.6208925,11.4249738 C29.4808119,11.7181637 29.3191451,12.0099942 29.1403701,12.2922244 C28.9386311,12.6109017 29.1240657,12.9903238 29.5547561,13.1395949 C29.672906,13.1805446 29.7971415,13.2 29.9195398,13.2 C30.2432178,13.2 30.5534619,13.0642372 30.6998576,12.8330667 C30.9025151,12.5130301 31.0857681,12.1822039 31.2445644,11.8496785 C31.4032459,11.5178328 31.168209,11.1537881 30.7197215,11.0365461 Z" id="路径" fill="#FFFFFF"></path>
                </g>
                <g id="cloud备份-7" transform="translate(111.000000, 106.000000)" fill-rule="nonzero">
                    <path d="M52.0398881,16.1402921 C52.0228546,16.1402921 52.0065671,16.1427725 51.9897823,16.1428965 C51.4759184,8.37159695 45.0109056,2.22222222 37.0899658,2.22222222 C32.5410327,2.22222222 28.474259,4.25576726 25.7322421,7.45323377 C24.8934988,7.28307924 24.0257861,7.1930412 23.1366883,7.1930412 C17.1820583,7.1930412 12.1784433,11.2051907 10.6620908,16.6634057 C5.76751493,18.1578387 2.20689655,22.6980625 2.20689655,28.0700841 C2.20689655,34.6587353 7.56150064,40 14.1668841,40 L52.0400124,40 C58.6452716,40 64,34.6587353 64,28.0700841 C64,21.4813088 58.6452716,16.1402921 52.0398881,16.1402921 Z" id="路径" fill="#E3F1FE"></path>
                    <path d="M48.7679953,35.9595463 L24.2856492,35.9595463 C17.6957143,35.9595463 12.0462764,30.7171002 11.944591,24.0297178 C11.8681097,18.9998475 14.8140069,14.6665507 19.0566103,12.7606764 C19.9953691,12.3389268 20.7581959,11.6108513 21.1733803,10.6578511 C21.7654898,9.29885244 22.5494235,8.04544865 23.4883064,6.93040188 C22.6521022,6.75814864 21.7869692,6.66666667 20.9006051,6.66666667 C14.9543054,6.66666667 9.95769035,10.7431587 8.44345922,16.2889066 C3.46633696,17.8351535 -0.129403246,22.5900738 0.00356998553,28.1785385 C0.161623136,34.8216921 5.78560864,40 12.3332056,40 L48.7681194,40 C49.8674145,40 50.7586207,39.095513 50.7586207,37.9798362 L50.7586207,37.9798362 C50.7586207,36.8641594 49.8674145,35.9595463 48.7679953,35.9595463 Z" id="路径" fill="#C0DDF8" opacity="0.272215361"></path>
                    <path d="M51.860125,14.0711863 C51.860125,14.0711863 51.8165,13.8402813 51.790875,13.6698247 C51.274125,10.1075054 49.577125,6.83115778 46.933375,4.33838529 C43.966375,1.54074315 40.086375,0 36.008125,0 C31.524375,0 27.26575,1.8879141 24.23825,5.19855325 C23.866875,5.13810495 23.492375,5.09254972 23.115125,5.06238815 C23.114,5.06226299 23.112875,5.06213784 23.111625,5.06213784 C22.815125,5.03410385 22.1545,5.0163323 21.979875,5.0163323 C15.90325,5.0163323 10.506125,9.00266573 8.679875,14.7720361 C8.374,14.879166 8.071375,14.9966835 7.77325,15.1270916 C7.74025,15.141484 7.708875,15.1580041 7.6785,15.1756505 C5.683375,16.072613 3.913125,17.4775665 2.593125,19.2359486 C0.896625,21.4956885 0,24.1883283 0,27.02264 C0,34.1784414 5.814625,40 12.961625,40 L51.03825,40 C58.185375,40 64,34.1784414 64,27.02264 C64,20.1430484 58.626,14.4967023 51.860125,14.0711863 Z M51.038375,38.122849 L12.961625,38.122849 C6.8485,38.122849 1.875,33.1434364 1.875,27.02264 C1.875,24.5983255 2.641625,22.2956585 4.091875,20.363691 C5.49525,18.4941742 7.49125,17.0898464 9.7125,16.4091461 C9.719375,16.4070185 9.72575,16.4038897 9.732625,16.4015118 C10.4805,16.1738608 11.251375,16.0251805 12.03725,15.9603519 C12.55325,15.9176752 12.937125,15.4643756 12.8945,14.9477491 C12.851875,14.4311227 12.398625,14.0465314 11.883125,14.0894585 C11.549375,14.1169919 11.218125,14.1585422 10.88925,14.2113563 C12.774875,9.83292242 17.126125,6.8933582 21.97975,6.8933582 C22.79325,6.8933582 23.60825,6.97533259 24.402375,7.13702865 C24.40675,7.13790471 24.411,7.13790471 24.415375,7.13878077 C25.173875,7.29409409 25.915875,7.52224572 26.636125,7.82348598 C26.75425,7.87304607 26.87675,7.89632429 26.99725,7.89632429 C27.364125,7.89632429 27.712375,7.67943632 27.862625,7.31937474 C28.06225,6.84104477 27.83675,6.29125314 27.359,6.09138581 C27.02925,5.95346858 26.6955,5.82894259 26.35825,5.71743239 C28.962875,3.26082875 32.40325,1.87715105 36.007875,1.87715105 C43.396625,1.87715105 49.565625,7.66254083 50.05225,15.0479957 C50.055875,15.1034379 50.09025,16.6167728 50.06975,16.9285258 C50.03575,17.445778 50.427,17.8926949 50.94375,17.9267362 C50.964625,17.928238 50.9855,17.9288637 51.00625,17.9288637 C51.495875,17.9288637 51.90825,17.5481521 51.940875,17.0518003 C51.964125,16.6992478 51.97575,16.3409384 51.97575,15.9870092 C51.97575,15.9787492 51.975375,15.9704892 51.975375,15.9622292 C57.651875,16.4400586 62.125,21.2178516 62.125,27.02264 C62.125,33.1434364 57.1515,38.122849 51.038375,38.122849 Z" id="形状" fill="#FFFFFF"></path>
                    <path d="M17.1755235,13.6994736 C16.9035156,13.5717358 16.6245111,13.4587713 16.3463691,13.3636366 C15.9622227,13.2323329 15.5700253,13.5398969 15.4711134,14.050848 C15.3722014,14.561799 15.6037627,15.0824291 15.9882925,15.2138602 C16.2257962,15.2951132 16.4641625,15.3916488 16.6966823,15.5006652 C16.7759461,15.5378531 16.8566475,15.5555556 16.9361988,15.5555556 C17.2323595,15.5555556 17.5097347,15.3103958 17.614014,14.9182676 C17.7460883,14.4208163 17.5497979,13.8752245 17.1755235,13.6994736 Z" id="路径" fill="#FFFFFF"></path>
                    <path d="M50.1915217,20.0738306 C49.7488452,19.8371498 49.2630913,20.1883092 49.1066525,20.858533 C48.9683515,21.4508357 48.8087386,22.0403923 48.6322348,22.6105544 C48.4330587,23.2543468 48.6161374,24.0208562 49.0413563,24.322414 C49.1580052,24.4051407 49.2806624,24.4444444 49.4015057,24.4444444 C49.7210716,24.4444444 50.0273743,24.1701762 50.1719102,23.703165 C50.3719932,23.0566265 50.5529181,22.3882907 50.709697,21.7165223 C50.8663625,21.046127 50.6343116,20.310683 50.1915217,20.0738306 Z" id="路径" fill="#FFFFFF"></path>
                </g>
                <g id="cloud备份-6" transform="translate(430.000000, 675.000000)" fill-rule="nonzero">
                    <path d="M52.0398881,16.1402921 C52.0228546,16.1402921 52.0065671,16.1427725 51.9897823,16.1428965 C51.4759184,8.37159695 45.0109056,2.22222222 37.0899658,2.22222222 C32.5410327,2.22222222 28.474259,4.25576726 25.7322421,7.45323377 C24.8934988,7.28307924 24.0257861,7.1930412 23.1366883,7.1930412 C17.1820583,7.1930412 12.1784433,11.2051907 10.6620908,16.6634057 C5.76751493,18.1578387 2.20689655,22.6980625 2.20689655,28.0700841 C2.20689655,34.6587353 7.56150064,40 14.1668841,40 L52.0400124,40 C58.6452716,40 64,34.6587353 64,28.0700841 C64,21.4813088 58.6452716,16.1402921 52.0398881,16.1402921 Z" id="路径" fill="#E3F1FE"></path>
                    <path d="M48.7679953,35.9595463 L24.2856492,35.9595463 C17.6957143,35.9595463 12.0462764,30.7171002 11.944591,24.0297178 C11.8681097,18.9998475 14.8140069,14.6665507 19.0566103,12.7606764 C19.9953691,12.3389268 20.7581959,11.6108513 21.1733803,10.6578511 C21.7654898,9.29885244 22.5494235,8.04544865 23.4883064,6.93040188 C22.6521022,6.75814864 21.7869692,6.66666667 20.9006051,6.66666667 C14.9543054,6.66666667 9.95769035,10.7431587 8.44345922,16.2889066 C3.46633696,17.8351535 -0.129403246,22.5900738 0.00356998553,28.1785385 C0.161623136,34.8216921 5.78560864,40 12.3332056,40 L48.7681194,40 C49.8674145,40 50.7586207,39.095513 50.7586207,37.9798362 L50.7586207,37.9798362 C50.7586207,36.8641594 49.8674145,35.9595463 48.7679953,35.9595463 Z" id="路径" fill="#C0DDF8" opacity="0.272215361"></path>
                    <path d="M51.860125,14.0711863 C51.860125,14.0711863 51.8165,13.8402813 51.790875,13.6698247 C51.274125,10.1075054 49.577125,6.83115778 46.933375,4.33838529 C43.966375,1.54074315 40.086375,0 36.008125,0 C31.524375,0 27.26575,1.8879141 24.23825,5.19855325 C23.866875,5.13810495 23.492375,5.09254972 23.115125,5.06238815 C23.114,5.06226299 23.112875,5.06213784 23.111625,5.06213784 C22.815125,5.03410385 22.1545,5.0163323 21.979875,5.0163323 C15.90325,5.0163323 10.506125,9.00266573 8.679875,14.7720361 C8.374,14.879166 8.071375,14.9966835 7.77325,15.1270916 C7.74025,15.141484 7.708875,15.1580041 7.6785,15.1756505 C5.683375,16.072613 3.913125,17.4775665 2.593125,19.2359486 C0.896625,21.4956885 0,24.1883283 0,27.02264 C0,34.1784414 5.814625,40 12.961625,40 L51.03825,40 C58.185375,40 64,34.1784414 64,27.02264 C64,20.1430484 58.626,14.4967023 51.860125,14.0711863 Z M51.038375,38.122849 L12.961625,38.122849 C6.8485,38.122849 1.875,33.1434364 1.875,27.02264 C1.875,24.5983255 2.641625,22.2956585 4.091875,20.363691 C5.49525,18.4941742 7.49125,17.0898464 9.7125,16.4091461 C9.719375,16.4070185 9.72575,16.4038897 9.732625,16.4015118 C10.4805,16.1738608 11.251375,16.0251805 12.03725,15.9603519 C12.55325,15.9176752 12.937125,15.4643756 12.8945,14.9477491 C12.851875,14.4311227 12.398625,14.0465314 11.883125,14.0894585 C11.549375,14.1169919 11.218125,14.1585422 10.88925,14.2113563 C12.774875,9.83292242 17.126125,6.8933582 21.97975,6.8933582 C22.79325,6.8933582 23.60825,6.97533259 24.402375,7.13702865 C24.40675,7.13790471 24.411,7.13790471 24.415375,7.13878077 C25.173875,7.29409409 25.915875,7.52224572 26.636125,7.82348598 C26.75425,7.87304607 26.87675,7.89632429 26.99725,7.89632429 C27.364125,7.89632429 27.712375,7.67943632 27.862625,7.31937474 C28.06225,6.84104477 27.83675,6.29125314 27.359,6.09138581 C27.02925,5.95346858 26.6955,5.82894259 26.35825,5.71743239 C28.962875,3.26082875 32.40325,1.87715105 36.007875,1.87715105 C43.396625,1.87715105 49.565625,7.66254083 50.05225,15.0479957 C50.055875,15.1034379 50.09025,16.6167728 50.06975,16.9285258 C50.03575,17.445778 50.427,17.8926949 50.94375,17.9267362 C50.964625,17.928238 50.9855,17.9288637 51.00625,17.9288637 C51.495875,17.9288637 51.90825,17.5481521 51.940875,17.0518003 C51.964125,16.6992478 51.97575,16.3409384 51.97575,15.9870092 C51.97575,15.9787492 51.975375,15.9704892 51.975375,15.9622292 C57.651875,16.4400586 62.125,21.2178516 62.125,27.02264 C62.125,33.1434364 57.1515,38.122849 51.038375,38.122849 Z" id="形状" fill="#FFFFFF"></path>
                    <path d="M17.1755235,13.6994736 C16.9035156,13.5717358 16.6245111,13.4587713 16.3463691,13.3636366 C15.9622227,13.2323329 15.5700253,13.5398969 15.4711134,14.050848 C15.3722014,14.561799 15.6037627,15.0824291 15.9882925,15.2138602 C16.2257962,15.2951132 16.4641625,15.3916488 16.6966823,15.5006652 C16.7759461,15.5378531 16.8566475,15.5555556 16.9361988,15.5555556 C17.2323595,15.5555556 17.5097347,15.3103958 17.614014,14.9182676 C17.7460883,14.4208163 17.5497979,13.8752245 17.1755235,13.6994736 Z" id="路径" fill="#FFFFFF"></path>
                    <path d="M50.1915217,20.0738306 C49.7488452,19.8371498 49.2630913,20.1883092 49.1066525,20.858533 C48.9683515,21.4508357 48.8087386,22.0403923 48.6322348,22.6105544 C48.4330587,23.2543468 48.6161374,24.0208562 49.0413563,24.322414 C49.1580052,24.4051407 49.2806624,24.4444444 49.4015057,24.4444444 C49.7210716,24.4444444 50.0273743,24.1701762 50.1719102,23.703165 C50.3719932,23.0566265 50.5529181,22.3882907 50.709697,21.7165223 C50.8663625,21.046127 50.6343116,20.310683 50.1915217,20.0738306 Z" id="路径" fill="#FFFFFF"></path>
                </g>
                <g id="cloud备份-3" transform="translate(101.000000, 126.000000) scale(-1, 1) translate(-101.000000, -126.000000) translate(51.000000, 95.000000)" fill-rule="nonzero">
                    <path d="M81.5051345,25.6390082 C81.4787943,25.6390082 81.4536076,25.6427882 81.4276519,25.6429772 C80.6330235,13.7999085 70.6356638,4.42857143 58.386889,4.42857143 C51.3525146,4.42857143 45.0637412,7.52759154 40.8235441,12.4003693 C39.526529,12.1410624 38.1847164,12.0038489 36.8098343,12.0038489 C27.6017196,12.0038489 19.8642346,18.1181625 17.519379,26.4362069 C9.95050982,28.7136474 4.44444444,35.6327197 4.44444444,43.8194096 C4.44444444,53.8601819 12.7246916,62 22.9391177,62 L81.5053267,62 C91.7195606,62 100,53.8601819 100,43.8194096 C100,33.7784484 91.7195606,25.6390082 81.5051345,25.6390082 Z" id="路径" fill="#E3F1FE"></path>
                    <path d="M76.8626012,55.826764 L38.2762949,55.826764 C27.8899846,55.826764 18.9859792,47.8170552 18.8257141,37.5996902 C18.7051729,29.914767 23.348163,23.2941086 30.034875,20.3822048 C31.5144404,19.7378318 32.7167218,18.6254364 33.3710885,17.1693883 C34.3043046,15.0930324 35.5398523,13.1780105 37.0196134,11.4743783 C35.7016828,11.2112 34.3381579,11.0714286 32.9411711,11.0714286 C23.5692857,11.0714286 15.6941859,17.299726 13.307626,25.7728366 C5.46324848,28.135281 -0.203950769,35.4001199 0.00562660763,43.9384957 C0.254732116,54.0882852 9.11862232,62 19.4382045,62 L76.8627969,62 C78.5953815,62 80,60.618073 80,58.9134783 L80,58.9134783 C80,57.2088835 78.5953815,55.826764 76.8626012,55.826764 Z" id="路径" fill="#C0DDF8" opacity="0.272215361"></path>
                    <path d="M81.0314453,21.8103388 C81.0314453,21.8103388 80.9632812,21.4524361 80.9232422,21.1882282 C80.1158203,15.6666333 77.4642578,10.5882946 73.3333984,6.7244972 C68.6974609,2.38815188 62.6349609,0 56.2626953,0 C49.2568359,0 42.6027344,2.92626685 37.8722656,8.05775753 C37.2919922,7.96406268 36.7068359,7.89345206 36.1173828,7.84670163 C36.115625,7.84650764 36.1138672,7.84631366 36.1119141,7.84631366 C35.6486328,7.80286097 34.6164062,7.77531507 34.3435547,7.77531507 C24.8488281,7.77531507 16.4158203,13.9541319 13.5623047,22.8966559 C13.084375,23.0627073 12.6115234,23.2448594 12.1457031,23.446992 C12.0941406,23.4693003 12.0451172,23.4949063 11.9976562,23.5222582 C8.88027344,24.9125502 6.11425781,27.0902282 4.05175781,29.8157203 C1.40097656,33.3183172 0,37.4919089 0,41.8850919 C0,52.9765841 9.08535156,62 20.2525391,62 L79.7472656,62 C90.9146484,62 100,52.9765841 100,41.8850919 C100,31.2217251 91.603125,22.4698885 81.0314453,21.8103388 Z M79.7474609,59.0904159 L20.2525391,59.0904159 C10.7007812,59.0904159 2.9296875,51.3723264 2.9296875,41.8850919 C2.9296875,38.1274045 4.12753906,34.5582707 6.39355469,31.563721 C8.58632813,28.66597 11.7050781,26.489262 15.1757813,25.4341764 C15.1865234,25.4308787 15.1964844,25.4260291 15.2072266,25.4223433 C16.3757813,25.0694842 17.5802734,24.8390298 18.8082031,24.7385455 C19.6144531,24.6723965 20.2142578,23.9697821 20.1476563,23.1690112 C20.0810547,22.3682402 19.3728516,21.7721237 18.5673828,21.8386606 C18.0458984,21.8813374 17.5283203,21.9457405 17.0144531,22.0276022 C19.9607422,15.2410297 26.7595703,10.6847052 34.3433594,10.6847052 C35.6144531,10.6847052 36.8878906,10.8117655 38.1287109,11.0623944 C38.1355469,11.0637523 38.1421875,11.0637523 38.1490234,11.0651102 C39.3341797,11.3058458 40.4935547,11.6594809 41.6189453,12.1264033 C41.8035156,12.2032214 41.9949219,12.2393027 42.1832031,12.2393027 C42.7564453,12.2393027 43.3005859,11.9031263 43.5353516,11.3450308 C43.8472656,10.6036194 43.4949219,9.75144237 42.7484375,9.441648 C42.2332031,9.2278763 41.7117188,9.03486102 41.1847656,8.8620202 C45.2544922,5.05428457 50.6300781,2.90958412 56.2623047,2.90958412 C67.8072266,2.90958412 77.4462891,11.8769383 78.2066406,23.3243933 C78.2123047,23.4103288 78.2660156,25.7559979 78.2339844,26.239215 C78.1808594,27.0409559 78.7921875,27.7336771 79.5996094,27.7864411 C79.6322266,27.7887689 79.6648438,27.7897388 79.6972656,27.7897388 C80.4623047,27.7897388 81.1066406,27.1996358 81.1576172,26.4302905 C81.1939453,25.8838341 81.2121094,25.3284545 81.2121094,24.7798643 C81.2121094,24.7670613 81.2115234,24.7542583 81.2115234,24.7414553 C90.0810547,25.4820908 97.0703125,32.88767 97.0703125,41.8850919 C97.0703125,51.3723264 89.2992188,59.0904159 79.7474609,59.0904159 Z" id="形状" fill="#FFFFFF"></path>
                    <path d="M27.9229293,20.6582367 C27.3751357,20.4036736 26.8132515,20.1785514 26.2531045,19.9889616 C25.4794763,19.727292 24.6896344,20.3402231 24.4904367,21.3584756 C24.291239,22.3767281 24.7575778,23.4142695 25.531978,23.6761929 C26.0102841,23.8381184 26.4903274,24.0305001 26.9585963,24.2477543 C27.1182247,24.3218644 27.2807484,24.3571429 27.4409558,24.3571429 C28.0373907,24.3571429 28.5959935,23.8685746 28.8060004,23.0871191 C29.0719834,22.0957696 28.6766763,21.008483 27.9229293,20.6582367 Z" id="路径" fill="#FFFFFF"></path>
                    <path d="M78.8579257,31.1103503 C77.9664244,30.7565971 76.98817,31.2814551 76.6731196,32.2832002 C76.3945968,33.1684812 76.0731541,34.0496577 75.717695,34.9018465 C75.3165765,35.8640862 75.6852768,37.009744 76.5416203,37.4604651 C76.7765383,37.584112 77.0235561,37.6428571 77.2669211,37.6428571 C77.9104915,37.6428571 78.5273511,37.2329241 78.8184302,36.5349091 C79.2213751,35.568565 79.5857378,34.5696417 79.9014731,33.5655878 C80.2169801,32.5635862 79.7496553,31.4643601 78.8579257,31.1103503 Z" id="路径" fill="#FFFFFF"></path>
                </g>
            </g>
        </g>
    </g>
</svg>