<svg id="Capa_1" enable-background="new 0 0 509.297 509.297" height="512" viewBox="0 0 509.297 509.297" width="512" xmlns="http://www.w3.org/2000/svg"><g><g id="COLORS_23_"><path d="m321.196 173.665c33.137 0 60 26.863 60 60v208.132c0 33.137-26.863 60-60 60h-133.095c-33.137 0-60-26.863-60-60v-208.132c0-33.137 26.863-60 60-60z" fill="#ffb655"/><path d="m352.431 182.43c5.559 9.099 8.765 19.792 8.765 31.235v208.132c0 33.137-26.863 60-60 60h-133.095c-11.443 0-22.136-3.206-31.235-8.765 10.539 17.25 29.541 28.765 51.235 28.765h133.095c33.137 0 60-26.863 60-60v-208.132c0-21.694-11.516-40.696-28.765-51.235z" fill="#ff7956"/><path d="m319.265 75.486c-8.175 4.7-16.682 10.196-24.938 16.547-2.801-7.26-7.614-17.077-12.981-27.265.009.016.017.032.026.049-12.544-23.817-28.129-49.685-28.129-49.685s-13.288 24.645-25.228 48.142c-5.24 10.312-10.221 20.404-13.703 28.093-7.496-6.938-15.757-12.749-23.944-17.569-24.847-14.628-49.008-20.107-49.008-20.107l39.495 119.8 149.329.174 37.753-119.974s-22.627 6.819-48.672 21.795z" fill="#b6e892"/><g fill="#7ccc92"><g><path d="m261.372 64.817c-.009-.016-.017-.032-.026-.049 5.367 10.188 10.181 20.005 12.981 27.265 5.061-3.894 10.216-7.462 15.331-10.727-2.418-5.13-5.276-10.774-8.312-16.539.009.016.017.032.026.049-12.544-23.816-28.129-49.684-28.129-49.684s-3.969 7.361-9.512 17.863c5.283 9.167 11.792 20.716 17.641 31.822z"/><path d="m345.192 62.412-35.001 111.23 19.993.023 37.753-119.974s-9.261 2.794-22.745 8.721z"/></g><path d="m190.368 73.799c8.186 4.82 16.448 10.631 23.944 17.569 3.483-7.689 8.463-17.781 13.703-28.093-8.726-10.68-18.397-20.673-28.957-29.931l-5.775-5.063-1.282 10.928c-1.356 11.562-1.92 23.082-1.682 34.529z"/><path d="m281.346 64.768c5.367 10.189 10.181 20.006 12.981 27.265 8.255-6.352 16.763-11.847 24.938-16.548.336-12.022-.215-24.126-1.64-36.277l-1.282-10.928-5.775 5.063c-10.723 9.401-20.531 19.56-29.362 30.428l.166 1.045c-.009-.015-.017-.032-.026-.048z"/></g></g><g id="LINES_24_"><g fill="#fff"><path d="m257.393 135.297h15v15h-15z"/><path d="m197.393 135.297h15v15h-15z"/><path d="m227.393 135.297h15v15h-15z"/></g><path d="m215.242 355.299h14.999v14.999h-14.999z" transform="matrix(.5 -.866 .866 .5 -202.821 374.322)"/><path d="m339.598 168.736 39.748-126.316-13.573 4.091c-.818.246-17.594 5.366-38.988 16.356-.186-8.151-.752-16.359-1.711-24.532l-2.944-25.103-16.506 14.472c-8.264 7.244-16.057 14.992-23.26 23.119-11.121-20.321-22.563-39.339-22.697-39.56l-6.785-11.263-6.24 11.573c-.114.212-9.938 18.444-20.204 38.333-6.972-7.79-14.483-15.231-22.435-22.202l-16.506-14.472-2.944 25.103c-.894 7.62-1.45 15.277-1.672 22.885-21.069-10.5-38.983-14.643-39.862-14.843l-12.934-2.933 41.158 124.844c-8.368 2.146-16.263 5.893-23.346 11.153l8.942 12.043c9.09-6.75 19.9-10.318 31.262-10.318h16.811l35.736 20.632-62.942 36.34-38.912-22.466c1.987-5.451 4.866-10.574 8.56-15.115l-11.635-9.467c-9.75 11.98-15.119 27.101-15.119 42.575v208.132c0 37.22 30.28 67.5 67.5 67.5h133.095c37.22 0 67.5-30.28 67.5-67.5v-208.132c.001-30.84-20.797-56.896-49.097-64.929zm9.807 258.531 24.291-14.024v28.048zm-213.804 14.53v-32.398l28.62 16.524-28.604 16.515c-.002-.215-.016-.427-.016-.641zm0-162.03 42.105-24.309 62.942 36.34-62.942 36.34-42.105-24.31zm27.105 57.03-27.105 15.649v-31.299zm-27.105 55.281v-22.312l42.105-24.309 21.8 12.587 7.5-12.99-14.301-8.257 62.943-36.34 62.942 36.34-62.942 36.34-9.669-5.583-7.504 12.988 2.173 1.255-61.428 35.465zm238.095-87.096-40.105 23.155-62.942-36.34 62.943-36.34 40.105 23.154v26.371zm-118.047 85.475 63.757 36.81-61.428 35.465-63.757-36.81zm15-8.66 62.942-36.34 40.105 23.155v27.31l-39.291 22.684zm77.941-45 25.105-14.495v28.989zm.001-90 25.071-14.475c.011.448.034.893.034 1.343v27.626zm22.252-30.168-37.252 21.508-62.943-36.34 35.735-20.632h14.812c22.987 0 42.556 14.855 49.648 35.464zm-60.295-173.175c.958 9.259 1.392 18.545 1.297 27.699-4.986 2.979-9.784 6.068-14.336 9.25-2.054-4.473-4.591-9.625-7.58-15.399 6.365-7.53 13.27-14.749 20.619-21.55zm-91.454 20.842c-2.808 5.574-5.282 10.584-7.397 14.98-4.312-3.41-8.977-6.661-13.926-9.744-.031-8.623.406-17.365 1.308-26.078 7.118 6.589 13.819 13.57 20.015 20.842zm-32.531 15.966c8.583 5.053 16.205 10.642 22.654 16.61l7.634 7.064 4.292-9.475c3.07-6.776 7.632-16.126 13.559-27.79 6.709-13.204 13.904-26.88 18.872-36.237 5.65 9.682 13.917 24.126 21.109 37.774l.099.188c5.934 11.272 10.156 20.133 12.548 26.335l3.613 9.367 7.958-6.122c7.272-5.595 15.382-10.975 24.103-15.989 12.656-7.278 24.553-12.594 33.224-16.072l-31.543 100.242-138.402-.161-33.31-101.036c8.873 3.044 21.162 7.984 33.59 15.302zm48.349 100.903h41.471l-20.736 11.972zm20.736 29.292 62.943 36.34-62.943 36.34-62.942-36.34zm-92.942 36.34-27.105 15.649s.024-30.436.063-31.262zm-24.454 211.439 40.969-23.654 63.757 36.81-39.672 22.905h-15.204c-23.208 0-42.934-15.142-49.85-36.061zm119.726 21.816 24.672 14.245h-49.345zm63.218 14.245h-8.546l-39.672-22.905 61.428-35.465 36.962 21.34c-6.62 21.421-26.606 37.03-50.172 37.03z"/><path d="m248.322 238.797h15v15h-15z"/><g fill="#fff"><path d="m169.822 282.979h15v15h-15z"/><path d="m169.822 373.178h15v15h-15z"/><path d="m325.822 283.437h15v15h-15z"/><path d="m325.822 374.646h15v15h-15z"/></g><path d="m247.837 328.844h15v15h-15z"/><path d="m248.322 418.13h15v15h-15z"/></g></g></svg>