<?xml version="1.0" encoding="UTF-8"?>
<svg width="138px" height="63px" viewBox="0 0 138 63" version="1.1" xmlns="http://www.w3.org/2000/svg" xmlns:xlink="http://www.w3.org/1999/xlink">
    <title>编组 2</title>
    <g id="页面-1" stroke="none" stroke-width="1" fill="none" fill-rule="evenodd">
        <g id="Base" transform="translate(-40.000000, -42.000000)">
            <g id="编组-2" transform="translate(40.000000, 42.000000)">
                <rect id="矩形" stroke="#4D5642" stroke-width="4" fill="#FFB655" x="2" y="2" width="134" height="59" rx="5"></rect>
                <path d="M35.0992018,49 L39.4093501,34.7831669 L52.5792474,34.7831669 L50.5678449,49 L59.6670468,49 L61.6784493,34.7831669 L66.2280502,34.7831669 L66.8985177,30.3109843 L62.3489168,30.3109843 L63.7377423,20.4721826 L67.377423,20.4721826 L68,16 L29.7833523,16 L29.1607754,20.4721826 L34.6202965,20.4721826 L31.6510832,30.3109843 L26.8620296,30.3109843 L26.1915621,34.7831669 L30.3101482,34.7831669 L26,49 L35.0992018,49 Z M53.6,30 L41,30 L43.9931034,20 L55,20 L53.6,30 Z M76.8426966,49 L78.9662921,46.3991655 L80.4292135,49 L86.941573,49 L83.0247191,41.433936 L87.4134831,36.0904033 L88.9235955,25.0250348 L90.3865169,25.0250348 L91,20.5326843 L89.5842697,20.5326843 L90.3393258,15.0472879 L84.2516854,15.0472879 L83.4966292,20.5326843 L81.6089888,20.5326843 L82.411236,15 L76.3235955,15 L75.5213483,20.5326843 L74.011236,20.5326843 L73.3977528,25.0250348 L74.9078652,25.0250348 L73.3033708,36.4214186 L76.1348315,41.4812239 L70,49 L76.8426966,49 Z M112,31 L111.299363,19.4105572 L104.526539,19.4105572 L104.853503,25.228739 L98.5010616,25.6510264 L104.760085,15 L95.418259,15 L96.492569,16.2668622 L90.6539278,26.1671554 L90,30.8123167 L105.087049,29.5923754 L105.180467,31 L112,31 Z M80.6521739,36 L80,34.6134454 L81.2608696,25 L83,25 L81.7391304,34.6134454 L80.6521739,36 Z M108.704782,48 L111,32 L90.2952183,32 L88,48 L108.704782,48 Z M102.97076,43 L96,43 L97.0292398,36 L104,36 L102.97076,43 Z" id="开始" fill="#343F27" fill-rule="nonzero"></path>
            </g>
        </g>
    </g>
</svg>